<mxfile host="65bd71144e">
    <diagram id="VsGx2YwvZuOt0e0wQSjP" name="Page-1">
        <mxGraphModel dx="1354" dy="643" grid="0" gridSize="10" guides="1" tooltips="1" connect="1" arrows="1" fold="1" page="1" pageScale="1" pageWidth="4681" pageHeight="3300" math="0" shadow="0">
            <root>
                <mxCell id="0"/>
                <mxCell id="1" parent="0"/>
                <mxCell id="80" value="" style="rounded=0;whiteSpace=wrap;html=1;sketch=1;hachureGap=4;jiggle=2;curveFitting=1;fontFamily=Helvetica;fontSize=20;fillColor=none;" vertex="1" parent="1">
                    <mxGeometry x="1020" y="90" width="150" height="50" as="geometry"/>
                </mxCell>
                <mxCell id="159" style="edgeStyle=none;sketch=1;hachureGap=4;jiggle=2;curveFitting=1;html=1;entryX=0.5;entryY=1;entryDx=0;entryDy=0;fontFamily=Helvetica;fontSize=15;exitX=0.5;exitY=0;exitDx=0;exitDy=0;" edge="1" parent="1" source="20" target="71">
                    <mxGeometry relative="1" as="geometry"/>
                </mxCell>
                <mxCell id="20" value="z&lt;sub style=&quot;font-size: 14px;&quot;&gt;2&lt;/sub&gt;" style="rounded=0;whiteSpace=wrap;html=1;sketch=1;hachureGap=4;jiggle=2;curveFitting=1;fontFamily=Helvetica;fontSize=14;verticalAlign=top;horizontal=1;" vertex="1" parent="1">
                    <mxGeometry x="199" y="184" width="711" height="429" as="geometry"/>
                </mxCell>
                <mxCell id="120" value="" style="rounded=0;whiteSpace=wrap;html=1;sketch=1;hachureGap=4;jiggle=2;curveFitting=1;fontFamily=Helvetica;fontSize=20;fillColor=none;" vertex="1" parent="1">
                    <mxGeometry x="629" y="329" width="130" height="40" as="geometry"/>
                </mxCell>
                <mxCell id="95" value="" style="rounded=0;whiteSpace=wrap;html=1;sketch=1;hachureGap=4;jiggle=2;curveFitting=1;fontFamily=Helvetica;fontSize=20;fillColor=none;" vertex="1" parent="1">
                    <mxGeometry x="680" y="219" width="150" height="50" as="geometry"/>
                </mxCell>
                <mxCell id="2" value="1234" style="rounded=0;whiteSpace=wrap;html=1;sketch=1;hachureGap=4;jiggle=2;curveFitting=1;fontFamily=Helvetica;fontSize=20;" vertex="1" parent="1">
                    <mxGeometry x="580" y="100" width="60" height="30" as="geometry"/>
                </mxCell>
                <mxCell id="5" value="" style="endArrow=none;html=1;sketch=1;hachureGap=4;jiggle=2;curveFitting=1;fontFamily=Helvetica;fontSize=16;fillColor=#f8cecc;strokeColor=#b85450;dashed=1;" edge="1" parent="1">
                    <mxGeometry width="50" height="50" relative="1" as="geometry">
                        <mxPoint x="609.6700000000001" y="140" as="sourcePoint"/>
                        <mxPoint x="609.6700000000001" y="90" as="targetPoint"/>
                    </mxGeometry>
                </mxCell>
                <mxCell id="8" value="×" style="text;html=1;align=center;verticalAlign=middle;resizable=0;points=[];autosize=1;strokeColor=none;fillColor=none;fontSize=30;fontFamily=Helvetica;sketch=1;hachureGap=4;jiggle=2;curveFitting=1;fontSource=https%3A%2F%2Ffonts.googleapis.com%2Fcss%3Ffamily%3DArchitects%2BDaughter;" vertex="1" parent="1">
                    <mxGeometry x="640" y="90" width="40" height="50" as="geometry"/>
                </mxCell>
                <mxCell id="13" value="9876" style="rounded=0;whiteSpace=wrap;html=1;sketch=1;hachureGap=4;jiggle=2;curveFitting=1;fontFamily=Helvetica;fontSize=20;" vertex="1" parent="1">
                    <mxGeometry x="680" y="100" width="60" height="30" as="geometry"/>
                </mxCell>
                <mxCell id="6" value="" style="endArrow=none;html=1;sketch=1;hachureGap=4;jiggle=2;curveFitting=1;fontFamily=Helvetica;fontSize=16;fillColor=#f8cecc;strokeColor=#b85450;dashed=1;" edge="1" parent="1">
                    <mxGeometry width="50" height="50" relative="1" as="geometry">
                        <mxPoint x="710" y="140" as="sourcePoint"/>
                        <mxPoint x="710" y="90" as="targetPoint"/>
                    </mxGeometry>
                </mxCell>
                <mxCell id="14" value="12" style="rounded=0;whiteSpace=wrap;html=1;sketch=1;hachureGap=4;jiggle=2;curveFitting=1;fontFamily=Helvetica;fontSize=20;" vertex="1" parent="1">
                    <mxGeometry x="295" y="229" width="30" height="30" as="geometry"/>
                </mxCell>
                <mxCell id="16" value="98" style="rounded=0;whiteSpace=wrap;html=1;sketch=1;hachureGap=4;jiggle=2;curveFitting=1;fontFamily=Helvetica;fontSize=20;" vertex="1" parent="1">
                    <mxGeometry x="365" y="229" width="30" height="30" as="geometry"/>
                </mxCell>
                <mxCell id="19" value="×" style="text;html=1;align=center;verticalAlign=middle;resizable=0;points=[];autosize=1;strokeColor=none;fillColor=none;fontSize=30;fontFamily=Helvetica;sketch=1;hachureGap=4;jiggle=2;curveFitting=1;fontSource=https%3A%2F%2Ffonts.googleapis.com%2Fcss%3Ffamily%3DArchitects%2BDaughter;" vertex="1" parent="1">
                    <mxGeometry x="325" y="219" width="40" height="50" as="geometry"/>
                </mxCell>
                <mxCell id="162" style="edgeStyle=none;sketch=1;hachureGap=4;jiggle=2;curveFitting=1;html=1;entryX=0.5;entryY=1;entryDx=0;entryDy=0;fontFamily=Helvetica;fontSize=15;exitX=0.5;exitY=0;exitDx=0;exitDy=0;" edge="1" parent="1" source="25" target="72">
                    <mxGeometry relative="1" as="geometry"/>
                </mxCell>
                <mxCell id="163" style="edgeStyle=none;sketch=1;hachureGap=4;jiggle=2;curveFitting=1;html=1;entryX=0.5;entryY=1;entryDx=0;entryDy=0;fontFamily=Helvetica;fontSize=15;exitX=0.5;exitY=0;exitDx=0;exitDy=0;" edge="1" parent="1" source="25" target="42">
                    <mxGeometry relative="1" as="geometry"/>
                </mxCell>
                <mxCell id="25" value="z&lt;sub style=&quot;font-size: 14px;&quot;&gt;0&lt;/sub&gt;" style="rounded=0;whiteSpace=wrap;html=1;sketch=1;hachureGap=4;jiggle=2;curveFitting=1;fontFamily=Helvetica;fontSize=14;verticalAlign=top;horizontal=1;" vertex="1" parent="1">
                    <mxGeometry x="1225" y="184" width="120" height="70" as="geometry"/>
                </mxCell>
                <mxCell id="26" value="34" style="rounded=0;whiteSpace=wrap;html=1;sketch=1;hachureGap=4;jiggle=2;curveFitting=1;fontFamily=Helvetica;fontSize=20;" vertex="1" parent="1">
                    <mxGeometry x="1235" y="214" width="30" height="30" as="geometry"/>
                </mxCell>
                <mxCell id="27" value="76" style="rounded=0;whiteSpace=wrap;html=1;sketch=1;hachureGap=4;jiggle=2;curveFitting=1;fontFamily=Helvetica;fontSize=20;" vertex="1" parent="1">
                    <mxGeometry x="1305" y="214" width="30" height="30" as="geometry"/>
                </mxCell>
                <mxCell id="28" value="×" style="text;html=1;align=center;verticalAlign=middle;resizable=0;points=[];autosize=1;strokeColor=none;fillColor=none;fontSize=30;fontFamily=Helvetica;sketch=1;hachureGap=4;jiggle=2;curveFitting=1;fontSource=https%3A%2F%2Ffonts.googleapis.com%2Fcss%3Ffamily%3DArchitects%2BDaughter;" vertex="1" parent="1">
                    <mxGeometry x="1265" y="204" width="40" height="50" as="geometry"/>
                </mxCell>
                <mxCell id="161" style="edgeStyle=none;sketch=1;hachureGap=4;jiggle=2;curveFitting=1;html=1;entryX=0.5;entryY=1;entryDx=0;entryDy=0;fontFamily=Helvetica;fontSize=15;exitX=0.5;exitY=0;exitDx=0;exitDy=0;" edge="1" parent="1" source="30" target="70">
                    <mxGeometry relative="1" as="geometry"/>
                </mxCell>
                <mxCell id="30" value="z&lt;sub style=&quot;font-size: 14px;&quot;&gt;1&lt;/sub&gt;" style="rounded=0;whiteSpace=wrap;html=1;sketch=1;hachureGap=4;jiggle=2;curveFitting=1;fontFamily=Helvetica;fontSize=14;verticalAlign=top;horizontal=1;" vertex="1" parent="1">
                    <mxGeometry x="940" y="184" width="260" height="70" as="geometry"/>
                </mxCell>
                <mxCell id="40" value="z&lt;sub&gt;2&lt;/sub&gt;" style="rounded=0;whiteSpace=wrap;html=1;sketch=1;hachureGap=4;jiggle=2;curveFitting=1;fontFamily=Helvetica;fontSize=20;" vertex="1" parent="1">
                    <mxGeometry x="1080" y="100" width="30" height="30" as="geometry"/>
                </mxCell>
                <mxCell id="31" value="12+34=46" style="rounded=0;whiteSpace=wrap;html=1;sketch=1;hachureGap=4;jiggle=2;curveFitting=1;fontFamily=Helvetica;fontSize=20;" vertex="1" parent="1">
                    <mxGeometry x="950" y="214" width="95" height="30" as="geometry"/>
                </mxCell>
                <mxCell id="33" value="×" style="text;html=1;align=center;verticalAlign=middle;resizable=0;points=[];autosize=1;strokeColor=none;fillColor=none;fontSize=30;fontFamily=Helvetica;sketch=1;hachureGap=4;jiggle=2;curveFitting=1;fontSource=https%3A%2F%2Ffonts.googleapis.com%2Fcss%3Ffamily%3DArchitects%2BDaughter;" vertex="1" parent="1">
                    <mxGeometry x="1045" y="204" width="40" height="50" as="geometry"/>
                </mxCell>
                <mxCell id="37" value="=" style="text;html=1;align=center;verticalAlign=middle;resizable=0;points=[];autosize=1;strokeColor=none;fillColor=none;fontSize=30;fontFamily=Helvetica;sketch=1;hachureGap=4;jiggle=2;curveFitting=1;fontSource=https%3A%2F%2Ffonts.googleapis.com%2Fcss%3Ffamily%3DArchitects%2BDaughter;" vertex="1" parent="1">
                    <mxGeometry x="740" y="90" width="40" height="50" as="geometry"/>
                </mxCell>
                <mxCell id="42" value="z&lt;sub&gt;0&lt;/sub&gt;" style="rounded=0;whiteSpace=wrap;html=1;sketch=1;hachureGap=4;jiggle=2;curveFitting=1;fontFamily=Helvetica;fontSize=20;" vertex="1" parent="1">
                    <mxGeometry x="1210" y="100" width="30" height="30" as="geometry"/>
                </mxCell>
                <mxCell id="43" value="+" style="text;html=1;align=center;verticalAlign=middle;resizable=0;points=[];autosize=1;strokeColor=none;fillColor=none;fontSize=30;fontFamily=Helvetica;sketch=1;hachureGap=4;jiggle=2;curveFitting=1;fontSource=https%3A%2F%2Ffonts.googleapis.com%2Fcss%3Ffamily%3DArchitects%2BDaughter;" vertex="1" parent="1">
                    <mxGeometry x="1170" y="90" width="40" height="50" as="geometry"/>
                </mxCell>
                <mxCell id="44" value="+" style="text;html=1;align=center;verticalAlign=middle;resizable=0;points=[];autosize=1;strokeColor=none;fillColor=none;fontSize=30;fontFamily=Helvetica;sketch=1;hachureGap=4;jiggle=2;curveFitting=1;fontSource=https%3A%2F%2Ffonts.googleapis.com%2Fcss%3Ffamily%3DArchitects%2BDaughter;" vertex="1" parent="1">
                    <mxGeometry x="890" y="90" width="40" height="50" as="geometry"/>
                </mxCell>
                <mxCell id="45" value="98+76=174" style="rounded=0;whiteSpace=wrap;html=1;sketch=1;hachureGap=4;jiggle=2;curveFitting=1;fontFamily=Helvetica;fontSize=20;" vertex="1" parent="1">
                    <mxGeometry x="1085" y="214" width="105" height="30" as="geometry"/>
                </mxCell>
                <mxCell id="46" value="" style="endArrow=none;html=1;sketch=1;hachureGap=4;jiggle=2;curveFitting=1;fontFamily=Helvetica;fontSize=16;fillColor=#f8cecc;strokeColor=#b85450;dashed=1;" edge="1" parent="1">
                    <mxGeometry width="50" height="50" relative="1" as="geometry">
                        <mxPoint x="309.80000000000007" y="269" as="sourcePoint"/>
                        <mxPoint x="309.80000000000007" y="219" as="targetPoint"/>
                    </mxGeometry>
                </mxCell>
                <mxCell id="47" value="" style="endArrow=none;html=1;sketch=1;hachureGap=4;jiggle=2;curveFitting=1;fontFamily=Helvetica;fontSize=16;fillColor=#f8cecc;strokeColor=#b85450;dashed=1;" edge="1" parent="1">
                    <mxGeometry width="50" height="50" relative="1" as="geometry">
                        <mxPoint x="379.8000000000002" y="269" as="sourcePoint"/>
                        <mxPoint x="379.8000000000002" y="219" as="targetPoint"/>
                    </mxGeometry>
                </mxCell>
                <mxCell id="48" value="" style="endArrow=none;html=1;sketch=1;hachureGap=4;jiggle=2;curveFitting=1;fontFamily=Helvetica;fontSize=16;fillColor=#f8cecc;strokeColor=#b85450;dashed=1;" edge="1" parent="1">
                    <mxGeometry width="50" height="50" relative="1" as="geometry">
                        <mxPoint x="1030" y="254" as="sourcePoint"/>
                        <mxPoint x="1030" y="204" as="targetPoint"/>
                    </mxGeometry>
                </mxCell>
                <mxCell id="49" value="" style="endArrow=none;html=1;sketch=1;hachureGap=4;jiggle=2;curveFitting=1;fontFamily=Helvetica;fontSize=16;fillColor=#f8cecc;strokeColor=#b85450;dashed=1;" edge="1" parent="1">
                    <mxGeometry width="50" height="50" relative="1" as="geometry">
                        <mxPoint x="1176" y="252" as="sourcePoint"/>
                        <mxPoint x="1176" y="202" as="targetPoint"/>
                    </mxGeometry>
                </mxCell>
                <mxCell id="50" value="" style="endArrow=none;html=1;sketch=1;hachureGap=4;jiggle=2;curveFitting=1;fontFamily=Helvetica;fontSize=16;fillColor=#f8cecc;strokeColor=#b85450;dashed=1;" edge="1" parent="1">
                    <mxGeometry width="50" height="50" relative="1" as="geometry">
                        <mxPoint x="1249.8" y="254" as="sourcePoint"/>
                        <mxPoint x="1249.8" y="204" as="targetPoint"/>
                    </mxGeometry>
                </mxCell>
                <mxCell id="51" value="" style="endArrow=none;html=1;sketch=1;hachureGap=4;jiggle=2;curveFitting=1;fontFamily=Helvetica;fontSize=16;fillColor=#f8cecc;strokeColor=#b85450;dashed=1;" edge="1" parent="1">
                    <mxGeometry width="50" height="50" relative="1" as="geometry">
                        <mxPoint x="1319.8" y="254" as="sourcePoint"/>
                        <mxPoint x="1319.8" y="204" as="targetPoint"/>
                    </mxGeometry>
                </mxCell>
                <mxCell id="52" value="z&lt;sub style=&quot;font-size: 14px;&quot;&gt;2&lt;/sub&gt;" style="rounded=0;whiteSpace=wrap;html=1;sketch=1;hachureGap=4;jiggle=2;curveFitting=1;fontFamily=Helvetica;fontSize=14;verticalAlign=top;horizontal=1;" vertex="1" parent="1">
                    <mxGeometry x="211" y="304" width="86" height="110" as="geometry"/>
                </mxCell>
                <mxCell id="53" value="1" style="rounded=0;whiteSpace=wrap;html=1;sketch=1;hachureGap=4;jiggle=2;curveFitting=1;fontFamily=Helvetica;fontSize=20;" vertex="1" parent="1">
                    <mxGeometry x="220" y="334" width="20" height="30" as="geometry"/>
                </mxCell>
                <mxCell id="54" value="9" style="rounded=0;whiteSpace=wrap;html=1;sketch=1;hachureGap=4;jiggle=2;curveFitting=1;fontFamily=Helvetica;fontSize=20;" vertex="1" parent="1">
                    <mxGeometry x="267" y="334" width="20" height="30" as="geometry"/>
                </mxCell>
                <mxCell id="55" value="×" style="text;html=1;align=center;verticalAlign=middle;resizable=0;points=[];autosize=1;strokeColor=none;fillColor=none;fontSize=30;fontFamily=Helvetica;sketch=1;hachureGap=4;jiggle=2;curveFitting=1;fontSource=https%3A%2F%2Ffonts.googleapis.com%2Fcss%3Ffamily%3DArchitects%2BDaughter;" vertex="1" parent="1">
                    <mxGeometry x="233" y="324.5" width="40" height="50" as="geometry"/>
                </mxCell>
                <mxCell id="156" style="edgeStyle=none;sketch=1;hachureGap=4;jiggle=2;curveFitting=1;html=1;entryX=0.5;entryY=1;entryDx=0;entryDy=0;fontFamily=Helvetica;fontSize=15;exitX=0.5;exitY=0;exitDx=0;exitDy=0;" edge="1" parent="1" source="56" target="84">
                    <mxGeometry relative="1" as="geometry"/>
                </mxCell>
                <mxCell id="157" style="edgeStyle=none;sketch=1;hachureGap=4;jiggle=2;curveFitting=1;html=1;entryX=0.5;entryY=1;entryDx=0;entryDy=0;fontFamily=Helvetica;fontSize=15;exitX=0.5;exitY=0;exitDx=0;exitDy=0;" edge="1" parent="1" source="56" target="89">
                    <mxGeometry relative="1" as="geometry"/>
                </mxCell>
                <mxCell id="56" value="z&lt;sub style=&quot;font-size: 14px;&quot;&gt;0&lt;/sub&gt;" style="rounded=0;whiteSpace=wrap;html=1;sketch=1;hachureGap=4;jiggle=2;curveFitting=1;fontFamily=Helvetica;fontSize=14;verticalAlign=top;horizontal=1;" vertex="1" parent="1">
                    <mxGeometry x="809" y="304" width="91" height="110" as="geometry"/>
                </mxCell>
                <mxCell id="57" value="2" style="rounded=0;whiteSpace=wrap;html=1;sketch=1;hachureGap=4;jiggle=2;curveFitting=1;fontFamily=Helvetica;fontSize=20;" vertex="1" parent="1">
                    <mxGeometry x="820" y="334.5" width="20" height="30" as="geometry"/>
                </mxCell>
                <mxCell id="58" value="8" style="rounded=0;whiteSpace=wrap;html=1;sketch=1;hachureGap=4;jiggle=2;curveFitting=1;fontFamily=Helvetica;fontSize=20;" vertex="1" parent="1">
                    <mxGeometry x="870" y="334" width="20" height="30" as="geometry"/>
                </mxCell>
                <mxCell id="59" value="×" style="text;html=1;align=center;verticalAlign=middle;resizable=0;points=[];autosize=1;strokeColor=none;fillColor=none;fontSize=30;fontFamily=Helvetica;sketch=1;hachureGap=4;jiggle=2;curveFitting=1;fontSource=https%3A%2F%2Ffonts.googleapis.com%2Fcss%3Ffamily%3DArchitects%2BDaughter;" vertex="1" parent="1">
                    <mxGeometry x="835" y="324" width="40" height="50" as="geometry"/>
                </mxCell>
                <mxCell id="83" value="z&lt;sub&gt;2&lt;/sub&gt;" style="rounded=0;whiteSpace=wrap;html=1;sketch=1;hachureGap=4;jiggle=2;curveFitting=1;fontFamily=Helvetica;fontSize=20;" vertex="1" parent="1">
                    <mxGeometry x="740" y="229" width="30" height="30" as="geometry"/>
                </mxCell>
                <mxCell id="70" value="z&lt;sub&gt;1&lt;/sub&gt;" style="rounded=0;whiteSpace=wrap;html=1;sketch=1;hachureGap=4;jiggle=2;curveFitting=1;fontFamily=Helvetica;fontSize=20;" vertex="1" parent="1">
                    <mxGeometry x="1030" y="100" width="30" height="30" as="geometry"/>
                </mxCell>
                <mxCell id="71" value="z&lt;sub&gt;2&lt;/sub&gt;" style="rounded=0;whiteSpace=wrap;html=1;sketch=1;hachureGap=4;jiggle=2;curveFitting=1;fontFamily=Helvetica;fontSize=20;" vertex="1" parent="1">
                    <mxGeometry x="860" y="100" width="30" height="30" as="geometry"/>
                </mxCell>
                <mxCell id="72" value="z&lt;sub&gt;0&lt;/sub&gt;" style="rounded=0;whiteSpace=wrap;html=1;sketch=1;hachureGap=4;jiggle=2;curveFitting=1;fontFamily=Helvetica;fontSize=20;" vertex="1" parent="1">
                    <mxGeometry x="1130" y="100" width="30" height="30" as="geometry"/>
                </mxCell>
                <mxCell id="73" value="10&lt;sup&gt;4&lt;/sup&gt;" style="text;html=1;align=center;verticalAlign=middle;resizable=0;points=[];autosize=1;strokeColor=none;fillColor=none;fontSize=30;fontFamily=Helvetica;sketch=1;hachureGap=4;jiggle=2;curveFitting=1;fontSource=https%3A%2F%2Ffonts.googleapis.com%2Fcss%3Ffamily%3DArchitects%2BDaughter;" vertex="1" parent="1">
                    <mxGeometry x="765" y="85" width="70" height="60" as="geometry"/>
                </mxCell>
                <mxCell id="74" value="×" style="text;html=1;align=center;verticalAlign=middle;resizable=0;points=[];autosize=1;strokeColor=none;fillColor=none;fontSize=30;fontFamily=Helvetica;sketch=1;hachureGap=4;jiggle=2;curveFitting=1;fontSource=https%3A%2F%2Ffonts.googleapis.com%2Fcss%3Ffamily%3DArchitects%2BDaughter;" vertex="1" parent="1">
                    <mxGeometry x="820" y="90" width="40" height="50" as="geometry"/>
                </mxCell>
                <mxCell id="75" value="10&lt;sup&gt;2&lt;/sup&gt;" style="text;html=1;align=center;verticalAlign=middle;resizable=0;points=[];autosize=1;strokeColor=none;fillColor=none;fontSize=30;fontFamily=Helvetica;sketch=1;hachureGap=4;jiggle=2;curveFitting=1;fontSource=https%3A%2F%2Ffonts.googleapis.com%2Fcss%3Ffamily%3DArchitects%2BDaughter;" vertex="1" parent="1">
                    <mxGeometry x="920" y="85" width="70" height="60" as="geometry"/>
                </mxCell>
                <mxCell id="77" value="-" style="text;html=1;strokeColor=none;fillColor=none;align=center;verticalAlign=middle;whiteSpace=wrap;rounded=0;sketch=1;hachureGap=4;jiggle=2;curveFitting=1;fontFamily=Helvetica;fontSize=20;" vertex="1" parent="1">
                    <mxGeometry x="1060" y="100" width="20" height="30" as="geometry"/>
                </mxCell>
                <mxCell id="88" value="z&lt;sub&gt;2&lt;/sub&gt;" style="rounded=0;whiteSpace=wrap;html=1;sketch=1;hachureGap=4;jiggle=2;curveFitting=1;fontFamily=Helvetica;fontSize=20;" vertex="1" parent="1">
                    <mxGeometry x="520" y="229" width="30" height="30" as="geometry"/>
                </mxCell>
                <mxCell id="79" value="-" style="text;html=1;strokeColor=none;fillColor=none;align=center;verticalAlign=middle;whiteSpace=wrap;rounded=0;sketch=1;hachureGap=4;jiggle=2;curveFitting=1;fontFamily=Helvetica;fontSize=20;" vertex="1" parent="1">
                    <mxGeometry x="1110" y="100" width="20" height="30" as="geometry"/>
                </mxCell>
                <mxCell id="81" value="×" style="text;html=1;align=center;verticalAlign=middle;resizable=0;points=[];autosize=1;strokeColor=none;fillColor=none;fontSize=30;fontFamily=Helvetica;sketch=1;hachureGap=4;jiggle=2;curveFitting=1;fontSource=https%3A%2F%2Ffonts.googleapis.com%2Fcss%3Ffamily%3DArchitects%2BDaughter;" vertex="1" parent="1">
                    <mxGeometry x="980" y="90" width="40" height="50" as="geometry"/>
                </mxCell>
                <mxCell id="82" value="=" style="text;html=1;align=center;verticalAlign=middle;resizable=0;points=[];autosize=1;strokeColor=none;fillColor=none;fontSize=30;fontFamily=Helvetica;sketch=1;hachureGap=4;jiggle=2;curveFitting=1;fontSource=https%3A%2F%2Ffonts.googleapis.com%2Fcss%3Ffamily%3DArchitects%2BDaughter;" vertex="1" parent="1">
                    <mxGeometry x="395" y="219" width="40" height="50" as="geometry"/>
                </mxCell>
                <mxCell id="84" value="z&lt;sub&gt;0&lt;/sub&gt;" style="rounded=0;whiteSpace=wrap;html=1;sketch=1;hachureGap=4;jiggle=2;curveFitting=1;fontFamily=Helvetica;fontSize=20;" vertex="1" parent="1">
                    <mxGeometry x="870" y="229" width="30" height="30" as="geometry"/>
                </mxCell>
                <mxCell id="85" value="+" style="text;html=1;align=center;verticalAlign=middle;resizable=0;points=[];autosize=1;strokeColor=none;fillColor=none;fontSize=30;fontFamily=Helvetica;sketch=1;hachureGap=4;jiggle=2;curveFitting=1;fontSource=https%3A%2F%2Ffonts.googleapis.com%2Fcss%3Ffamily%3DArchitects%2BDaughter;" vertex="1" parent="1">
                    <mxGeometry x="830" y="219" width="40" height="50" as="geometry"/>
                </mxCell>
                <mxCell id="86" value="+" style="text;html=1;align=center;verticalAlign=middle;resizable=0;points=[];autosize=1;strokeColor=none;fillColor=none;fontSize=30;fontFamily=Helvetica;sketch=1;hachureGap=4;jiggle=2;curveFitting=1;fontSource=https%3A%2F%2Ffonts.googleapis.com%2Fcss%3Ffamily%3DArchitects%2BDaughter;" vertex="1" parent="1">
                    <mxGeometry x="550" y="219" width="40" height="50" as="geometry"/>
                </mxCell>
                <mxCell id="87" value="z&lt;sub&gt;1&lt;/sub&gt;" style="rounded=0;whiteSpace=wrap;html=1;sketch=1;hachureGap=4;jiggle=2;curveFitting=1;fontFamily=Helvetica;fontSize=20;" vertex="1" parent="1">
                    <mxGeometry x="690" y="229" width="30" height="30" as="geometry"/>
                </mxCell>
                <mxCell id="89" value="z&lt;sub&gt;0&lt;/sub&gt;" style="rounded=0;whiteSpace=wrap;html=1;sketch=1;hachureGap=4;jiggle=2;curveFitting=1;fontFamily=Helvetica;fontSize=20;" vertex="1" parent="1">
                    <mxGeometry x="790" y="229" width="30" height="30" as="geometry"/>
                </mxCell>
                <mxCell id="90" value="10&lt;sup&gt;2&lt;/sup&gt;" style="text;html=1;align=center;verticalAlign=middle;resizable=0;points=[];autosize=1;strokeColor=none;fillColor=none;fontSize=30;fontFamily=Helvetica;sketch=1;hachureGap=4;jiggle=2;curveFitting=1;fontSource=https%3A%2F%2Ffonts.googleapis.com%2Fcss%3Ffamily%3DArchitects%2BDaughter;" vertex="1" parent="1">
                    <mxGeometry x="425" y="214" width="70" height="60" as="geometry"/>
                </mxCell>
                <mxCell id="91" value="×" style="text;html=1;align=center;verticalAlign=middle;resizable=0;points=[];autosize=1;strokeColor=none;fillColor=none;fontSize=30;fontFamily=Helvetica;sketch=1;hachureGap=4;jiggle=2;curveFitting=1;fontSource=https%3A%2F%2Ffonts.googleapis.com%2Fcss%3Ffamily%3DArchitects%2BDaughter;" vertex="1" parent="1">
                    <mxGeometry x="480" y="219" width="40" height="50" as="geometry"/>
                </mxCell>
                <mxCell id="92" value="10" style="text;html=1;align=center;verticalAlign=middle;resizable=0;points=[];autosize=1;strokeColor=none;fillColor=none;fontSize=30;fontFamily=Helvetica;sketch=1;hachureGap=4;jiggle=2;curveFitting=1;fontSource=https%3A%2F%2Ffonts.googleapis.com%2Fcss%3Ffamily%3DArchitects%2BDaughter;" vertex="1" parent="1">
                    <mxGeometry x="585" y="219" width="60" height="50" as="geometry"/>
                </mxCell>
                <mxCell id="93" value="-" style="text;html=1;strokeColor=none;fillColor=none;align=center;verticalAlign=middle;whiteSpace=wrap;rounded=0;sketch=1;hachureGap=4;jiggle=2;curveFitting=1;fontFamily=Helvetica;fontSize=20;" vertex="1" parent="1">
                    <mxGeometry x="720" y="229" width="20" height="30" as="geometry"/>
                </mxCell>
                <mxCell id="94" value="-" style="text;html=1;strokeColor=none;fillColor=none;align=center;verticalAlign=middle;whiteSpace=wrap;rounded=0;sketch=1;hachureGap=4;jiggle=2;curveFitting=1;fontFamily=Helvetica;fontSize=20;" vertex="1" parent="1">
                    <mxGeometry x="770" y="229" width="20" height="30" as="geometry"/>
                </mxCell>
                <mxCell id="96" value="×" style="text;html=1;align=center;verticalAlign=middle;resizable=0;points=[];autosize=1;strokeColor=none;fillColor=none;fontSize=30;fontFamily=Helvetica;sketch=1;hachureGap=4;jiggle=2;curveFitting=1;fontSource=https%3A%2F%2Ffonts.googleapis.com%2Fcss%3Ffamily%3DArchitects%2BDaughter;" vertex="1" parent="1">
                    <mxGeometry x="640" y="219" width="40" height="50" as="geometry"/>
                </mxCell>
                <mxCell id="100" value="z&lt;sub style=&quot;font-size: 14px;&quot;&gt;1&lt;/sub&gt;" style="rounded=0;whiteSpace=wrap;html=1;sketch=1;hachureGap=4;jiggle=2;curveFitting=1;fontFamily=Helvetica;fontSize=14;verticalAlign=top;horizontal=1;" vertex="1" parent="1">
                    <mxGeometry x="308" y="304" width="492" height="264" as="geometry"/>
                </mxCell>
                <mxCell id="101" value="1+2=3" style="rounded=0;whiteSpace=wrap;html=1;sketch=1;hachureGap=4;jiggle=2;curveFitting=1;fontFamily=Helvetica;fontSize=20;" vertex="1" parent="1">
                    <mxGeometry x="313" y="334" width="65" height="30" as="geometry"/>
                </mxCell>
                <mxCell id="102" value="×" style="text;html=1;align=center;verticalAlign=middle;resizable=0;points=[];autosize=1;strokeColor=none;fillColor=none;fontSize=30;fontFamily=Helvetica;sketch=1;hachureGap=4;jiggle=2;curveFitting=1;fontSource=https%3A%2F%2Ffonts.googleapis.com%2Fcss%3Ffamily%3DArchitects%2BDaughter;" vertex="1" parent="1">
                    <mxGeometry x="370" y="324.5" width="40" height="50" as="geometry"/>
                </mxCell>
                <mxCell id="103" value="9+8=17" style="rounded=0;whiteSpace=wrap;html=1;sketch=1;hachureGap=4;jiggle=2;curveFitting=1;fontFamily=Helvetica;fontSize=20;" vertex="1" parent="1">
                    <mxGeometry x="404" y="334" width="75" height="30" as="geometry"/>
                </mxCell>
                <mxCell id="104" value="" style="endArrow=none;html=1;sketch=1;hachureGap=4;jiggle=2;curveFitting=1;fontFamily=Helvetica;fontSize=16;fillColor=#f8cecc;strokeColor=#b85450;dashed=1;" edge="1" parent="1">
                    <mxGeometry width="50" height="50" relative="1" as="geometry">
                        <mxPoint x="362" y="372" as="sourcePoint"/>
                        <mxPoint x="362" y="322" as="targetPoint"/>
                    </mxGeometry>
                </mxCell>
                <mxCell id="105" value="" style="endArrow=none;html=1;sketch=1;hachureGap=4;jiggle=2;curveFitting=1;fontFamily=Helvetica;fontSize=16;fillColor=#f8cecc;strokeColor=#b85450;dashed=1;" edge="1" parent="1">
                    <mxGeometry width="50" height="50" relative="1" as="geometry">
                        <mxPoint x="463" y="375" as="sourcePoint"/>
                        <mxPoint x="463" y="325" as="targetPoint"/>
                    </mxGeometry>
                </mxCell>
                <mxCell id="107" value="=" style="text;html=1;align=center;verticalAlign=middle;resizable=0;points=[];autosize=1;strokeColor=none;fillColor=none;fontSize=15;fontFamily=Helvetica;sketch=1;hachureGap=4;jiggle=2;curveFitting=1;fontSource=https%3A%2F%2Ffonts.googleapis.com%2Fcss%3Ffamily%3DArchitects%2BDaughter;" vertex="1" parent="1">
                    <mxGeometry x="479" y="334" width="30" height="30" as="geometry"/>
                </mxCell>
                <mxCell id="110" value="+" style="text;html=1;align=center;verticalAlign=middle;resizable=0;points=[];autosize=1;strokeColor=none;fillColor=none;fontSize=15;fontFamily=Helvetica;sketch=1;hachureGap=4;jiggle=2;curveFitting=1;fontSource=https%3A%2F%2Ffonts.googleapis.com%2Fcss%3Ffamily%3DArchitects%2BDaughter;" vertex="1" parent="1">
                    <mxGeometry x="740" y="332" width="30" height="30" as="geometry"/>
                </mxCell>
                <mxCell id="111" value="+" style="text;html=1;align=center;verticalAlign=middle;resizable=0;points=[];autosize=1;strokeColor=none;fillColor=none;fontSize=15;fontFamily=Helvetica;sketch=1;hachureGap=4;jiggle=2;curveFitting=1;fontSource=https%3A%2F%2Ffonts.googleapis.com%2Fcss%3Ffamily%3DArchitects%2BDaughter;" vertex="1" parent="1">
                    <mxGeometry x="569" y="334" width="30" height="30" as="geometry"/>
                </mxCell>
                <mxCell id="113" value="z&lt;sub style=&quot;font-size: 16px;&quot;&gt;2&lt;/sub&gt;" style="rounded=0;whiteSpace=wrap;html=1;sketch=1;hachureGap=4;jiggle=2;curveFitting=1;fontFamily=Helvetica;fontSize=16;" vertex="1" parent="1">
                    <mxGeometry x="544" y="336.5" width="25" height="25" as="geometry"/>
                </mxCell>
                <mxCell id="115" value="10&lt;sup style=&quot;font-size: 15px;&quot;&gt;2&lt;/sup&gt;" style="text;html=1;align=center;verticalAlign=middle;resizable=0;points=[];autosize=1;strokeColor=none;fillColor=none;fontSize=15;fontFamily=Helvetica;sketch=1;hachureGap=4;jiggle=2;curveFitting=1;fontSource=https%3A%2F%2Ffonts.googleapis.com%2Fcss%3Ffamily%3DArchitects%2BDaughter;" vertex="1" parent="1">
                    <mxGeometry x="489" y="329" width="50" height="40" as="geometry"/>
                </mxCell>
                <mxCell id="116" value="×" style="text;html=1;align=center;verticalAlign=middle;resizable=0;points=[];autosize=1;strokeColor=none;fillColor=none;fontSize=15;fontFamily=Helvetica;sketch=1;hachureGap=4;jiggle=2;curveFitting=1;fontSource=https%3A%2F%2Ffonts.googleapis.com%2Fcss%3Ffamily%3DArchitects%2BDaughter;" vertex="1" parent="1">
                    <mxGeometry x="519" y="334" width="30" height="30" as="geometry"/>
                </mxCell>
                <mxCell id="117" value="10" style="text;html=1;align=center;verticalAlign=middle;resizable=0;points=[];autosize=1;strokeColor=none;fillColor=none;fontSize=15;fontFamily=Helvetica;sketch=1;hachureGap=4;jiggle=2;curveFitting=1;fontSource=https%3A%2F%2Ffonts.googleapis.com%2Fcss%3Ffamily%3DArchitects%2BDaughter;" vertex="1" parent="1">
                    <mxGeometry x="579" y="334" width="40" height="30" as="geometry"/>
                </mxCell>
                <mxCell id="118" value="-" style="text;html=1;strokeColor=none;fillColor=none;align=center;verticalAlign=middle;whiteSpace=wrap;rounded=0;sketch=1;hachureGap=4;jiggle=2;curveFitting=1;fontFamily=Helvetica;fontSize=15;" vertex="1" parent="1">
                    <mxGeometry x="649" y="332" width="20" height="30" as="geometry"/>
                </mxCell>
                <mxCell id="119" value="-" style="text;html=1;strokeColor=none;fillColor=none;align=center;verticalAlign=middle;whiteSpace=wrap;rounded=0;sketch=1;hachureGap=4;jiggle=2;curveFitting=1;fontFamily=Helvetica;fontSize=15;" vertex="1" parent="1">
                    <mxGeometry x="695" y="332" width="20" height="30" as="geometry"/>
                </mxCell>
                <mxCell id="121" value="×" style="text;html=1;align=center;verticalAlign=middle;resizable=0;points=[];autosize=1;strokeColor=none;fillColor=none;fontSize=15;fontFamily=Helvetica;sketch=1;hachureGap=4;jiggle=2;curveFitting=1;fontSource=https%3A%2F%2Ffonts.googleapis.com%2Fcss%3Ffamily%3DArchitects%2BDaughter;" vertex="1" parent="1">
                    <mxGeometry x="599" y="334" width="30" height="30" as="geometry"/>
                </mxCell>
                <mxCell id="122" value="z&lt;sub style=&quot;font-size: 16px;&quot;&gt;1&lt;/sub&gt;" style="rounded=0;whiteSpace=wrap;html=1;sketch=1;hachureGap=4;jiggle=2;curveFitting=1;fontFamily=Helvetica;fontSize=16;" vertex="1" parent="1">
                    <mxGeometry x="624" y="336.5" width="25" height="25" as="geometry"/>
                </mxCell>
                <mxCell id="123" value="z&lt;sub style=&quot;font-size: 16px;&quot;&gt;2&lt;/sub&gt;" style="rounded=0;whiteSpace=wrap;html=1;sketch=1;hachureGap=4;jiggle=2;curveFitting=1;fontFamily=Helvetica;fontSize=16;" vertex="1" parent="1">
                    <mxGeometry x="670" y="337" width="25" height="25" as="geometry"/>
                </mxCell>
                <mxCell id="124" value="z&lt;sub style=&quot;font-size: 16px;&quot;&gt;0&lt;/sub&gt;" style="rounded=0;whiteSpace=wrap;html=1;sketch=1;hachureGap=4;jiggle=2;curveFitting=1;fontFamily=Helvetica;fontSize=16;" vertex="1" parent="1">
                    <mxGeometry x="715" y="334.5" width="25" height="25" as="geometry"/>
                </mxCell>
                <mxCell id="125" value="z&lt;sub style=&quot;font-size: 16px;&quot;&gt;0&lt;/sub&gt;" style="rounded=0;whiteSpace=wrap;html=1;sketch=1;hachureGap=4;jiggle=2;curveFitting=1;fontFamily=Helvetica;fontSize=16;" vertex="1" parent="1">
                    <mxGeometry x="770" y="334.5" width="25" height="25" as="geometry"/>
                </mxCell>
                <mxCell id="126" value="= 9" style="text;html=1;align=center;verticalAlign=middle;resizable=0;points=[];autosize=1;strokeColor=none;fillColor=none;fontSize=30;fontFamily=Helvetica;sketch=1;hachureGap=4;jiggle=2;curveFitting=1;fontSource=https%3A%2F%2Ffonts.googleapis.com%2Fcss%3Ffamily%3DArchitects%2BDaughter;" vertex="1" parent="1">
                    <mxGeometry x="219" y="364" width="70" height="50" as="geometry"/>
                </mxCell>
                <mxCell id="127" value="= 16" style="text;html=1;align=center;verticalAlign=middle;resizable=0;points=[];autosize=1;strokeColor=none;fillColor=none;fontSize=30;fontFamily=Helvetica;sketch=1;hachureGap=4;jiggle=2;curveFitting=1;fontSource=https%3A%2F%2Ffonts.googleapis.com%2Fcss%3Ffamily%3DArchitects%2BDaughter;" vertex="1" parent="1">
                    <mxGeometry x="815" y="364" width="80" height="50" as="geometry"/>
                </mxCell>
                <mxCell id="146" style="sketch=1;hachureGap=4;jiggle=2;curveFitting=1;html=1;entryX=0.5;entryY=1;entryDx=0;entryDy=0;fontFamily=Helvetica;fontSize=15;exitX=0.5;exitY=0;exitDx=0;exitDy=0;" edge="1" parent="1" source="128" target="113">
                    <mxGeometry relative="1" as="geometry"/>
                </mxCell>
                <mxCell id="150" style="sketch=1;hachureGap=4;jiggle=2;curveFitting=1;html=1;entryX=0.5;entryY=1;entryDx=0;entryDy=0;fontFamily=Helvetica;fontSize=15;exitX=0.5;exitY=0;exitDx=0;exitDy=0;" edge="1" parent="1" source="128" target="123">
                    <mxGeometry relative="1" as="geometry"/>
                </mxCell>
                <mxCell id="128" value="z&lt;sub style=&quot;font-size: 14px;&quot;&gt;2&lt;/sub&gt;" style="rounded=0;whiteSpace=wrap;html=1;sketch=1;hachureGap=4;jiggle=2;curveFitting=1;fontFamily=Helvetica;fontSize=14;verticalAlign=top;horizontal=1;" vertex="1" parent="1">
                    <mxGeometry x="330" y="411" width="100" height="110" as="geometry"/>
                </mxCell>
                <mxCell id="129" value="0" style="rounded=0;whiteSpace=wrap;html=1;sketch=1;hachureGap=4;jiggle=2;curveFitting=1;fontFamily=Helvetica;fontSize=20;" vertex="1" parent="1">
                    <mxGeometry x="340" y="441" width="20" height="30" as="geometry"/>
                </mxCell>
                <mxCell id="130" value="1" style="rounded=0;whiteSpace=wrap;html=1;sketch=1;hachureGap=4;jiggle=2;curveFitting=1;fontFamily=Helvetica;fontSize=20;" vertex="1" parent="1">
                    <mxGeometry x="400" y="441" width="20" height="30" as="geometry"/>
                </mxCell>
                <mxCell id="131" value="×" style="text;html=1;align=center;verticalAlign=middle;resizable=0;points=[];autosize=1;strokeColor=none;fillColor=none;fontSize=30;fontFamily=Helvetica;sketch=1;hachureGap=4;jiggle=2;curveFitting=1;fontSource=https%3A%2F%2Ffonts.googleapis.com%2Fcss%3Ffamily%3DArchitects%2BDaughter;" vertex="1" parent="1">
                    <mxGeometry x="360" y="431" width="40" height="50" as="geometry"/>
                </mxCell>
                <mxCell id="148" style="sketch=1;hachureGap=4;jiggle=2;curveFitting=1;html=1;entryX=0.5;entryY=1;entryDx=0;entryDy=0;fontFamily=Helvetica;fontSize=15;exitX=0.5;exitY=0;exitDx=0;exitDy=0;" edge="1" parent="1" source="132" target="125">
                    <mxGeometry relative="1" as="geometry"/>
                </mxCell>
                <mxCell id="149" style="sketch=1;hachureGap=4;jiggle=2;curveFitting=1;html=1;entryX=0.5;entryY=1;entryDx=0;entryDy=0;fontFamily=Helvetica;fontSize=15;exitX=0.5;exitY=0;exitDx=0;exitDy=0;" edge="1" parent="1" source="132" target="124">
                    <mxGeometry relative="1" as="geometry"/>
                </mxCell>
                <mxCell id="132" value="z&lt;sub style=&quot;font-size: 14px;&quot;&gt;0&lt;/sub&gt;" style="rounded=0;whiteSpace=wrap;html=1;sketch=1;hachureGap=4;jiggle=2;curveFitting=1;fontFamily=Helvetica;fontSize=14;verticalAlign=top;horizontal=1;" vertex="1" parent="1">
                    <mxGeometry x="670" y="411" width="100" height="110" as="geometry"/>
                </mxCell>
                <mxCell id="133" value="3" style="rounded=0;whiteSpace=wrap;html=1;sketch=1;hachureGap=4;jiggle=2;curveFitting=1;fontFamily=Helvetica;fontSize=20;" vertex="1" parent="1">
                    <mxGeometry x="680" y="441" width="20" height="30" as="geometry"/>
                </mxCell>
                <mxCell id="134" value="7" style="rounded=0;whiteSpace=wrap;html=1;sketch=1;hachureGap=4;jiggle=2;curveFitting=1;fontFamily=Helvetica;fontSize=20;" vertex="1" parent="1">
                    <mxGeometry x="740" y="441" width="20" height="30" as="geometry"/>
                </mxCell>
                <mxCell id="135" value="×" style="text;html=1;align=center;verticalAlign=middle;resizable=0;points=[];autosize=1;strokeColor=none;fillColor=none;fontSize=30;fontFamily=Helvetica;sketch=1;hachureGap=4;jiggle=2;curveFitting=1;fontSource=https%3A%2F%2Ffonts.googleapis.com%2Fcss%3Ffamily%3DArchitects%2BDaughter;" vertex="1" parent="1">
                    <mxGeometry x="700" y="431" width="40" height="50" as="geometry"/>
                </mxCell>
                <mxCell id="147" style="sketch=1;hachureGap=4;jiggle=2;curveFitting=1;html=1;entryX=0.5;entryY=1;entryDx=0;entryDy=0;fontFamily=Helvetica;fontSize=15;exitX=0.5;exitY=0;exitDx=0;exitDy=0;" edge="1" parent="1" source="136" target="122">
                    <mxGeometry relative="1" as="geometry"/>
                </mxCell>
                <mxCell id="136" value="z&lt;sub style=&quot;font-size: 14px;&quot;&gt;1&lt;/sub&gt;" style="rounded=0;whiteSpace=wrap;html=1;sketch=1;hachureGap=4;jiggle=2;curveFitting=1;fontFamily=Helvetica;fontSize=14;verticalAlign=top;horizontal=1;" vertex="1" parent="1">
                    <mxGeometry x="450" y="411" width="190" height="110" as="geometry"/>
                </mxCell>
                <mxCell id="137" value="0+3=3" style="rounded=0;whiteSpace=wrap;html=1;sketch=1;hachureGap=4;jiggle=2;curveFitting=1;fontFamily=Helvetica;fontSize=20;" vertex="1" parent="1">
                    <mxGeometry x="460" y="441" width="65" height="30" as="geometry"/>
                </mxCell>
                <mxCell id="138" value="×" style="text;html=1;align=center;verticalAlign=middle;resizable=0;points=[];autosize=1;strokeColor=none;fillColor=none;fontSize=30;fontFamily=Helvetica;sketch=1;hachureGap=4;jiggle=2;curveFitting=1;fontSource=https%3A%2F%2Ffonts.googleapis.com%2Fcss%3Ffamily%3DArchitects%2BDaughter;" vertex="1" parent="1">
                    <mxGeometry x="525" y="431" width="40" height="50" as="geometry"/>
                </mxCell>
                <mxCell id="139" value="1+7=8" style="rounded=0;whiteSpace=wrap;html=1;sketch=1;hachureGap=4;jiggle=2;curveFitting=1;fontFamily=Helvetica;fontSize=20;" vertex="1" parent="1">
                    <mxGeometry x="565" y="441" width="65" height="30" as="geometry"/>
                </mxCell>
                <mxCell id="142" value="= 0" style="text;html=1;align=center;verticalAlign=middle;resizable=0;points=[];autosize=1;strokeColor=none;fillColor=none;fontSize=30;fontFamily=Helvetica;sketch=1;hachureGap=4;jiggle=2;curveFitting=1;fontSource=https%3A%2F%2Ffonts.googleapis.com%2Fcss%3Ffamily%3DArchitects%2BDaughter;" vertex="1" parent="1">
                    <mxGeometry x="345" y="471" width="70" height="50" as="geometry"/>
                </mxCell>
                <mxCell id="143" value="= 21" style="text;html=1;align=center;verticalAlign=middle;resizable=0;points=[];autosize=1;strokeColor=none;fillColor=none;fontSize=30;fontFamily=Helvetica;sketch=1;hachureGap=4;jiggle=2;curveFitting=1;fontSource=https%3A%2F%2Ffonts.googleapis.com%2Fcss%3Ffamily%3DArchitects%2BDaughter;" vertex="1" parent="1">
                    <mxGeometry x="680" y="471" width="80" height="50" as="geometry"/>
                </mxCell>
                <mxCell id="144" value="= 24" style="text;html=1;align=center;verticalAlign=middle;resizable=0;points=[];autosize=1;strokeColor=none;fillColor=none;fontSize=30;fontFamily=Helvetica;sketch=1;hachureGap=4;jiggle=2;curveFitting=1;fontSource=https%3A%2F%2Ffonts.googleapis.com%2Fcss%3Ffamily%3DArchitects%2BDaughter;" vertex="1" parent="1">
                    <mxGeometry x="510" y="471" width="80" height="50" as="geometry"/>
                </mxCell>
                <mxCell id="151" value="= 51" style="text;html=1;align=center;verticalAlign=middle;resizable=0;points=[];autosize=1;strokeColor=none;fillColor=none;fontSize=30;fontFamily=Helvetica;sketch=1;hachureGap=4;jiggle=2;curveFitting=1;fontSource=https%3A%2F%2Ffonts.googleapis.com%2Fcss%3Ffamily%3DArchitects%2BDaughter;" vertex="1" parent="1">
                    <mxGeometry x="509" y="521" width="80" height="50" as="geometry"/>
                </mxCell>
                <mxCell id="152" value="" style="rounded=0;whiteSpace=wrap;html=1;sketch=1;hachureGap=4;jiggle=2;curveFitting=1;fontFamily=Helvetica;fontSize=20;fillColor=none;" vertex="1" parent="1">
                    <mxGeometry x="619" y="327" width="126" height="40" as="geometry"/>
                </mxCell>
                <mxCell id="153" value="= 1176" style="text;html=1;align=center;verticalAlign=middle;resizable=0;points=[];autosize=1;strokeColor=none;fillColor=none;fontSize=30;fontFamily=Helvetica;sketch=1;hachureGap=4;jiggle=2;curveFitting=1;fontSource=https%3A%2F%2Ffonts.googleapis.com%2Fcss%3Ffamily%3DArchitects%2BDaughter;" vertex="1" parent="1">
                    <mxGeometry x="495" y="568" width="110" height="50" as="geometry"/>
                </mxCell>
                <mxCell id="155" style="edgeStyle=none;sketch=1;hachureGap=4;jiggle=2;curveFitting=1;html=1;entryX=0.5;entryY=1;entryDx=0;entryDy=0;fontFamily=Helvetica;fontSize=15;exitX=0.5;exitY=0;exitDx=0;exitDy=0;" edge="1" parent="1" source="52" target="88">
                    <mxGeometry relative="1" as="geometry"/>
                </mxCell>
                <mxCell id="154" style="edgeStyle=none;sketch=1;hachureGap=4;jiggle=2;curveFitting=1;html=1;fontFamily=Helvetica;fontSize=15;entryX=0.5;entryY=1;entryDx=0;entryDy=0;exitX=0.5;exitY=0;exitDx=0;exitDy=0;" edge="1" parent="1" source="52" target="83">
                    <mxGeometry relative="1" as="geometry"/>
                </mxCell>
                <mxCell id="158" style="edgeStyle=none;sketch=1;hachureGap=4;jiggle=2;curveFitting=1;html=1;fontFamily=Helvetica;fontSize=15;entryX=0.5;entryY=1;entryDx=0;entryDy=0;exitX=0.5;exitY=0;exitDx=0;exitDy=0;" edge="1" parent="1" source="100" target="87">
                    <mxGeometry relative="1" as="geometry">
                        <mxPoint x="230" y="314" as="sourcePoint"/>
                        <mxPoint x="765" y="269" as="targetPoint"/>
                    </mxGeometry>
                </mxCell>
                <mxCell id="164" value="&lt;span style=&quot;font-size: 30px;&quot; lang=&quot;EN-US&quot;&gt;Karatsuba算法&lt;/span&gt;" style="text;html=1;align=center;verticalAlign=middle;resizable=0;points=[];autosize=1;strokeColor=none;fillColor=none;fontSize=30;fontFamily=Helvetica;sketch=1;hachureGap=4;jiggle=2;curveFitting=1;" vertex="1" parent="1">
                    <mxGeometry x="814" y="31" width="200" height="48" as="geometry"/>
                </mxCell>
                <mxCell id="160" style="edgeStyle=none;sketch=1;hachureGap=4;jiggle=2;curveFitting=1;html=1;fontFamily=Helvetica;fontSize=15;entryX=0.5;entryY=1;entryDx=0;entryDy=0;exitX=0.5;exitY=0;exitDx=0;exitDy=0;" edge="1" parent="1" source="20" target="40">
                    <mxGeometry relative="1" as="geometry">
                        <mxPoint x="1090" y="160" as="targetPoint"/>
                    </mxGeometry>
                </mxCell>
            </root>
        </mxGraphModel>
    </diagram>
</mxfile>